<?xml version="1.0" encoding="utf-8"?>
<!-- Generator: Adobe Illustrator 16.0.0, SVG Export Plug-In . SVG Version: 6.00 Build 0)  -->
<!DOCTYPE svg PUBLIC "-//W3C//DTD SVG 1.1//EN" "http://www.w3.org/Graphics/SVG/1.1/DTD/svg11.dtd">
<svg version="1.1" id="Capa_1" xmlns="http://www.w3.org/2000/svg" xmlns:xlink="http://www.w3.org/1999/xlink" x="0px" y="0px"
	 width="125.893px" height="204.5px" viewBox="0 0 125.893 204.5" enable-background="new 0 0 125.893 204.5" xml:space="preserve">
<rect fill="#EEB8D5" stroke="#000000" stroke-width="4" stroke-miterlimit="10" width="125.893" height="204.5"/>
<g>
	<path fill="none" stroke="#010202" stroke-miterlimit="10" d="M27.592,197.637c0,0-0.654-94.672,0-100.666
		c0.654-5.994,3.667-16.001,11-22.668c-0.333,21-0.654,36.66,0,41c0.654,4.341,9.488,20.839,26,20.667
		c11.654-1.328,21.988-4.828,24.667-21.667c1.487-16.826,0.333-38.333,0-40c-0.333-1.666,8.667,8.334,9,18.334s0.333,10,0.333,10v95
		"/>
	<polyline fill="none" stroke="#010202" stroke-miterlimit="10" points="38.592,74.303 38.592,50.809 89.051,50.809 89.259,74.303 	
		"/>
</g>
</svg>
