<?xml version="1.0" encoding="utf-8"?>
<!-- Generator: Adobe Illustrator 16.0.0, SVG Export Plug-In . SVG Version: 6.00 Build 0)  -->
<!DOCTYPE svg PUBLIC "-//W3C//DTD SVG 1.1//EN" "http://www.w3.org/Graphics/SVG/1.1/DTD/svg11.dtd">
<svg version="1.1" id="Capa_1" xmlns="http://www.w3.org/2000/svg" xmlns:xlink="http://www.w3.org/1999/xlink" x="0px" y="0px"
	 width="141.732px" height="141.732px" viewBox="0 0 141.732 141.732" enable-background="new 0 0 141.732 141.732"
	 xml:space="preserve">
<circle fill="#5EB4B3" cx="70.984" cy="70.783" r="67.897"/>
<circle fill="#5EB4B3" stroke="#000000" stroke-width="1.5" stroke-miterlimit="10" cx="70.984" cy="70.783" r="58.897"/>
<g enable-background="new    ">
	<path d="M60.231,70.427c-0.448,0-0.799-0.181-1.053-0.538c-0.255-0.358-0.427-0.77-0.516-1.231
		c-0.09-0.464-0.134-0.829-0.134-1.098c0-0.51,0.052-1.001,0.157-1.479c0.104-0.478,0.216-0.955,0.336-1.434
		c0.687-2.21,1.56-4.338,2.621-6.384c1.06-2.047,2.173-4.069,3.338-6.07c0.566-0.986,1.187-2.158,1.858-3.519
		c0.673-1.357,1.263-2.738,1.771-4.144c0.507-1.403,0.761-2.658,0.761-3.764c0-0.718-0.172-1.366-0.515-1.948
		c-0.344-0.583-1.008-0.874-1.994-0.874h-0.089c-1.374,0-2.809,0.403-4.301,1.21c-1.494,0.807-2.979,1.859-4.458,3.158
		s-2.89,2.688-4.233,4.167c-1.344,1.478-2.562,2.911-3.651,4.301c-1.09,1.389-1.979,2.561-2.666,3.517
		c-0.478,0.657-0.91,1.321-1.299,1.993c-0.388,0.672-0.792,1.353-1.209,2.039c-0.567,1.017-1.149,2.046-1.747,3.091
		c-0.598,1.046-1.194,2.076-1.792,3.092c-0.239,0.479-0.493,0.94-0.762,1.389s-0.553,0.896-0.851,1.345
		c-0.03,0.061-0.136,0.143-0.314,0.246c-0.179,0.104-0.313,0.157-0.403,0.157c-0.179,0-0.344-0.067-0.492-0.202
		c-0.149-0.134-0.225-0.291-0.225-0.47c0-0.062,0.007-0.105,0.022-0.136c0.015-0.029,0.021-0.061,0.021-0.09
		c0.776-1.672,1.628-3.338,2.554-4.995c0.926-1.656,1.808-3.308,2.645-4.949c1.552-3.018,2.963-6.07,4.233-9.162
		c1.269-3.091,2.218-6.265,2.845-9.521c0.029-0.148,0.052-0.306,0.066-0.471c0.016-0.164,0.022-0.336,0.022-0.516
		c0-0.985-0.329-1.688-0.986-2.105c-0.656-0.418-1.508-0.627-2.554-0.627c-0.866,0-1.844,0.12-2.934,0.358
		c-1.092,0.238-2.158,0.545-3.203,0.919c-1.046,0.373-1.957,0.769-2.733,1.187c-1.104,0.568-2.255,1.285-3.45,2.15
		c-1.194,0.867-2.307,1.792-3.338,2.777c-1.03,0.985-1.875,1.972-2.531,2.956c-0.419,0.657-0.762,1.39-1.03,2.195
		c-0.27,0.807-0.403,1.599-0.403,2.375c0,0.926,0.246,1.657,0.739,2.194c0.493,0.538,1.307,0.807,2.441,0.807
		c0.807,0,1.44-0.147,1.904-0.448c0.463-0.298,0.888-0.446,1.277-0.446c0.388,0,0.583,0.164,0.583,0.491
		c0,0.358-0.239,0.665-0.717,0.919c-0.479,0.255-1.017,0.448-1.613,0.582c-0.599,0.136-1.062,0.202-1.39,0.202
		c-1.522,0-2.703-0.396-3.539-1.188c-0.837-0.791-1.255-1.829-1.255-3.113c0-0.896,0.165-1.807,0.493-2.733
		c0.328-0.925,0.746-1.775,1.254-2.554c0.688-1.015,1.591-2.038,2.71-3.067c1.12-1.03,2.322-2.001,3.606-2.912
		s2.479-1.665,3.584-2.264c0.866-0.478,1.882-0.933,3.047-1.365c1.165-0.434,2.353-0.784,3.563-1.054
		c1.209-0.269,2.307-0.402,3.292-0.402c1.492,0,2.657,0.328,3.494,0.984c0.836,0.657,1.255,1.645,1.255,2.957
		c0,0.867-0.143,1.912-0.427,3.136c-0.284,1.227-0.648,2.494-1.098,3.81c-0.448,1.313-0.903,2.568-1.366,3.763
		c-0.463,1.195-0.874,2.227-1.231,3.092l0.179,0.09c0.687-0.835,1.56-1.852,2.621-3.047c1.06-1.193,2.24-2.434,3.54-3.719
		c1.299-1.283,2.666-2.479,4.099-3.584c1.435-1.104,2.853-2.008,4.256-2.71c1.404-0.701,2.748-1.053,4.032-1.053
		c1.434,0,2.486,0.329,3.158,0.984c0.672,0.657,1.009,1.599,1.009,2.822c0,1.227-0.27,2.592-0.807,4.101
		c-0.537,1.508-1.172,2.985-1.904,4.435s-1.412,2.711-2.039,3.786c-1.135,1.971-2.218,3.958-3.248,5.958
		c-1.03,2.002-1.889,4.077-2.576,6.228c-0.148,0.479-0.291,0.956-0.425,1.435c-0.135,0.478-0.202,0.97-0.202,1.479
		c0,0.537,0.089,0.881,0.27,1.03c0.18,0.149,0.357,0.254,0.538,0.313c0.18,0.059,0.269,0.225,0.269,0.492
		c0,0.18-0.075,0.336-0.224,0.471C60.618,70.359,60.439,70.427,60.231,70.427z"/>
	<path d="M68.25,66.619c-0.984,0-1.666-0.262-2.039-0.784c-0.374-0.521-0.56-1.156-0.56-1.903c0-0.718,0.119-1.463,0.359-2.24
		c0.237-0.776,0.5-1.501,0.783-2.173c0.284-0.672,0.516-1.172,0.694-1.501c0.538-0.926,1.143-1.821,1.814-2.688
		c0.671-0.867,1.396-1.628,2.173-2.285c0.775-0.687,1.574-1.217,2.396-1.59s1.65-0.561,2.486-0.561c1.434,0,2.449,0.381,3.047,1.143
		s0.896,1.576,0.896,2.441c0,0.299-0.045,0.611-0.135,0.94c-0.119,0.447-0.262,0.836-0.426,1.164
		c-0.164,0.329-0.366,0.493-0.605,0.493c-0.209,0-0.401-0.104-0.581-0.313s-0.239-0.418-0.18-0.627
		c0.061-0.209,0.143-0.419,0.246-0.629c0.104-0.208,0.172-0.418,0.202-0.627c0.029-0.148,0.051-0.282,0.066-0.402
		c0.016-0.119,0.022-0.238,0.022-0.358c0-0.806-0.262-1.366-0.785-1.68c-0.521-0.313-1.082-0.471-1.68-0.471
		c-0.688,0-1.396,0.194-2.128,0.583c-0.732,0.388-1.366,0.836-1.903,1.344c-0.658,0.657-1.313,1.419-1.972,2.285
		c-0.658,0.865-1.226,1.747-1.703,2.643c-0.06,0.15-0.217,0.509-0.47,1.075c-0.254,0.567-0.493,1.203-0.717,1.904
		c-0.225,0.701-0.337,1.352-0.337,1.947c0,0.419,0.098,0.777,0.291,1.075c0.194,0.3,0.53,0.448,1.009,0.448
		c0.507,0,1.097-0.238,1.77-0.717c0.671-0.479,1.359-1.067,2.061-1.771c0.701-0.701,1.337-1.381,1.903-2.038
		c0.567-0.657,0.986-1.165,1.255-1.522c0.18-0.238,0.352-0.5,0.516-0.784c0.164-0.283,0.336-0.544,0.516-0.784
		c0.09-0.118,0.27-0.179,0.537-0.179c0.239,0,0.485,0.066,0.74,0.201c0.253,0.135,0.35,0.32,0.291,0.561
		c-0.12,0.209-0.336,0.665-0.65,1.366c-0.313,0.702-0.604,1.464-0.873,2.285c-0.27,0.82-0.403,1.545-0.403,2.173
		c0,0.775,0.239,1.225,0.718,1.344c0.328,0.062,0.679-0.06,1.053-0.358c0.373-0.298,0.717-0.642,1.03-1.029
		c0.313-0.389,0.545-0.672,0.694-0.853c0.627-0.836,1.217-1.693,1.771-2.576c0.552-0.88,1.111-1.709,1.68-2.485
		c0.179-0.238,0.388-0.358,0.627-0.358c0.418,0,0.627,0.226,0.627,0.672c0,0.15-0.193,0.531-0.582,1.144
		c-0.389,0.611-0.858,1.307-1.412,2.083c-0.553,0.776-1.066,1.479-1.545,2.104c-0.479,0.628-1.016,1.24-1.612,1.837
		c-0.599,0.6-1.359,0.896-2.284,0.896c-0.866,0-1.456-0.194-1.771-0.583c-0.313-0.388-0.471-0.82-0.471-1.299
		c0-0.418,0.045-0.858,0.134-1.321c0.09-0.463,0.181-0.858,0.271-1.188l-0.181-0.136c-0.269,0.329-0.672,0.747-1.209,1.255
		c-0.537,0.509-1.136,1.023-1.792,1.547c-0.656,0.521-1.308,0.963-1.948,1.32C69.332,66.439,68.757,66.619,68.25,66.619z"/>
	<path d="M85.005,66.484c-1.016,0-1.821-0.283-2.419-0.853c-0.598-0.565-0.896-1.357-0.896-2.374c0-0.598,0.059-1.188,0.179-1.77
		c0.119-0.583,0.284-1.157,0.493-1.725c0.119-0.329,0.365-0.874,0.738-1.637c0.374-0.762,0.813-1.567,1.321-2.419
		c0.509-0.852,1-1.575,1.479-2.173c0.478-0.598,0.896-0.896,1.254-0.896c0.149,0,0.352,0.053,0.604,0.156
		c0.254,0.104,0.382,0.263,0.382,0.472c0,0.119-0.062,0.269-0.181,0.446c-0.688,0.777-1.403,1.703-2.149,2.778
		s-1.374,2.195-1.881,3.359c-0.51,1.165-0.763,2.285-0.763,3.359c0,1.374,0.656,2.062,1.972,2.062c0.896,0,1.799-0.434,2.711-1.299
		c0.909-0.866,1.918-2.031,3.022-3.494c0.328-0.418,0.619-0.829,0.873-1.232c0.254-0.402,0.486-0.754,0.695-1.053
		c0.209-0.209,0.432-0.313,0.672-0.313c0.358,0,0.537,0.135,0.537,0.403c0,0.329-0.239,0.852-0.717,1.567
		c-0.479,0.716-1.017,1.464-1.612,2.239c-1.165,1.435-2.181,2.524-3.046,3.271C87.409,66.111,86.319,66.484,85.005,66.484z
		 M90.022,48.161c-0.149,0-0.313-0.029-0.492-0.09c-0.18-0.06-0.27-0.193-0.27-0.403c0-0.147,0.045-0.282,0.135-0.402
		c0.237-0.447,0.68-0.836,1.321-1.164c0.643-0.329,1.128-0.493,1.455-0.493c0.149,0,0.314,0.038,0.493,0.112
		c0.18,0.073,0.27,0.217,0.27,0.425c0,0.509-0.308,0.972-0.918,1.39C91.403,47.952,90.739,48.161,90.022,48.161z"/>
	<path d="M95.04,66.484c-1.193,0-2.016-0.358-2.463-1.075c-0.449-0.717-0.673-1.583-0.673-2.599c0-1.136,0.187-2.435,0.56-3.897
		s0.867-2.985,1.479-4.568s1.307-3.138,2.084-4.659c0.775-1.523,1.568-2.912,2.375-4.167c0.805-1.254,1.565-2.284,2.283-3.091
		c0.627-0.688,1.231-1.218,1.813-1.592c0.584-0.373,1.203-0.679,1.859-0.918c0.449-0.18,0.896-0.269,1.344-0.269
		c0.598,0,1.113,0.148,1.547,0.447c0.433,0.299,0.648,0.792,0.648,1.479c0,0.657-0.238,1.411-0.717,2.263
		c-0.478,0.852-1.074,1.71-1.791,2.576c-0.718,0.866-1.449,1.673-2.195,2.419c-0.748,0.747-1.404,1.359-1.971,1.837
		c-1.257,1.046-2.466,2.023-3.629,2.936c-1.166,0.911-2.138,1.829-2.912,2.755c-0.419,1.165-0.748,2.293-0.986,3.383
		c-0.239,1.09-0.358,2.068-0.358,2.935c0,0.776,0.143,1.419,0.427,1.927c0.283,0.509,0.783,0.762,1.501,0.762
		c0.717,0,1.402-0.23,2.061-0.694c0.656-0.463,1.291-1.053,1.904-1.77c0.61-0.717,1.172-1.434,1.68-2.15
		c0.359-0.508,0.709-1.008,1.053-1.501c0.345-0.493,0.619-0.889,0.828-1.188c0.119-0.208,0.314-0.313,0.584-0.313
		c0.328,0,0.492,0.165,0.492,0.493c0,0.209-0.09,0.479-0.27,0.807c-0.357,0.599-0.82,1.314-1.39,2.15
		c-0.565,0.836-1.209,1.657-1.926,2.464s-1.516,1.479-2.396,2.017C97.004,66.216,96.055,66.484,95.04,66.484z M101.76,43.322
		c-0.658,0.717-1.353,1.644-2.085,2.778c-0.731,1.134-1.454,2.39-2.172,3.763c-0.717,1.374-1.375,2.763-1.972,4.167
		c0.956-0.866,1.821-1.605,2.599-2.218c0.775-0.612,1.554-1.263,2.33-1.949c0.687-0.597,1.427-1.336,2.218-2.218
		c0.791-0.88,1.53-1.799,2.219-2.755c0.686-0.956,1.164-1.837,1.434-2.645c0.088-0.328,0.133-0.582,0.133-0.762
		c0-0.478-0.237-0.717-0.717-0.717c-0.119,0-0.246,0.016-0.381,0.045c-0.133,0.029-0.275,0.075-0.426,0.135
		c-0.537,0.209-1.066,0.508-1.59,0.896C102.827,42.232,102.298,42.725,101.76,43.322z"/>
	<path d="M103.686,66.887c-1.464,0-2.583-0.3-3.359-0.896s-1.165-1.224-1.165-1.882c0-0.478,0.201-0.902,0.604-1.276
		c0.402-0.373,1.083-0.56,2.039-0.56c0.597,0,1.313,0.089,2.149,0.269c0.627,0.149,1.291,0.345,1.993,0.582
		c0.701,0.239,1.426,0.344,2.173,0.313c0.209-0.328,0.328-0.598,0.358-0.807c0.028-0.209,0.045-0.463,0.045-0.762
		c0-0.986-0.157-1.807-0.471-2.464c-0.314-0.657-0.673-1.3-1.075-1.927c-0.403-0.627-0.739-1.39-1.008-2.285
		c-0.39,0.657-0.883,1.517-1.479,2.576c-0.598,1.061-1.583,2.502-2.957,4.322c-0.089,0.149-0.269,0.225-0.537,0.225
		c-0.448,0-0.672-0.193-0.672-0.582c0-0.09,0.066-0.225,0.201-0.403s0.439-0.642,0.919-1.389c0.537-0.866,1.164-1.844,1.881-2.936
		c0.717-1.09,1.403-2.292,2.063-3.605c0.028-0.507,0.134-1,0.313-1.479c0.179-0.477,0.388-0.909,0.627-1.299
		c0.328-0.538,0.672-0.934,1.03-1.188c0.357-0.253,0.687-0.381,0.984-0.381c0.567,0,0.853,0.328,0.853,0.985
		c0,0.447-0.18,1.03-0.538,1.747c-0.209,0.447-0.478,0.828-0.806,1.144c-0.329,0.313-0.613,0.59-0.853,0.827
		c0.061,0.747,0.238,1.42,0.538,2.018c0.298,0.598,0.634,1.18,1.008,1.747c0.373,0.566,0.694,1.18,0.963,1.837
		c0.27,0.657,0.403,1.448,0.403,2.374c0,0.598-0.104,1.149-0.313,1.657c0.655,0.029,1.336-0.217,2.038-0.738
		c0.7-0.522,1.373-1.202,2.017-2.039c0.642-0.836,1.216-1.688,1.725-2.554c0.148-0.208,0.344-0.313,0.582-0.313
		c0.149,0,0.298,0.045,0.448,0.135c0.149,0.091,0.224,0.239,0.224,0.448c0,0.119-0.045,0.27-0.134,0.447
		c-0.867,1.554-1.694,2.756-2.485,3.605c-0.792,0.853-1.592,1.441-2.397,1.771c-0.807,0.329-1.702,0.522-2.688,0.583
		c-0.746,0.688-1.546,1.217-2.396,1.59C105.68,66.7,104.731,66.887,103.686,66.887z M103.463,65.812
		c0.688,0,1.284-0.104,1.792-0.313c0.509-0.209,1.061-0.508,1.657-0.896c-0.627-0.09-1.148-0.201-1.566-0.336
		c-0.42-0.136-0.956-0.275-1.613-0.427c-0.836-0.179-1.494-0.269-1.971-0.269c-0.866,0-1.301,0.209-1.301,0.627
		c0,0.329,0.284,0.68,0.853,1.053C101.879,65.626,102.595,65.812,103.463,65.812z"/>
</g>
<g enable-background="new    ">
	<path fill="none" stroke="#000000" stroke-width="0.3" stroke-miterlimit="10" d="M60.231,70.427c-0.448,0-0.799-0.181-1.053-0.538
		c-0.255-0.358-0.427-0.77-0.516-1.231c-0.09-0.464-0.134-0.829-0.134-1.098c0-0.51,0.052-1.001,0.157-1.479
		c0.104-0.478,0.216-0.955,0.336-1.434c0.687-2.21,1.56-4.338,2.621-6.384c1.06-2.047,2.173-4.069,3.338-6.07
		c0.566-0.986,1.187-2.158,1.858-3.519c0.673-1.357,1.263-2.738,1.771-4.144c0.507-1.403,0.761-2.658,0.761-3.764
		c0-0.718-0.172-1.366-0.515-1.948c-0.344-0.583-1.008-0.874-1.994-0.874h-0.089c-1.374,0-2.809,0.403-4.301,1.21
		c-1.494,0.807-2.979,1.859-4.458,3.158s-2.89,2.688-4.233,4.167c-1.344,1.478-2.562,2.911-3.651,4.301
		c-1.09,1.389-1.979,2.561-2.666,3.517c-0.478,0.657-0.91,1.321-1.299,1.993c-0.388,0.672-0.792,1.353-1.209,2.039
		c-0.567,1.017-1.149,2.046-1.747,3.091c-0.598,1.046-1.194,2.076-1.792,3.092c-0.239,0.479-0.493,0.94-0.762,1.389
		s-0.553,0.896-0.851,1.345c-0.03,0.061-0.136,0.143-0.314,0.246c-0.179,0.104-0.313,0.157-0.403,0.157
		c-0.179,0-0.344-0.067-0.492-0.202c-0.149-0.134-0.225-0.291-0.225-0.47c0-0.062,0.007-0.105,0.022-0.136
		c0.015-0.029,0.021-0.061,0.021-0.09c0.776-1.672,1.628-3.338,2.554-4.995c0.926-1.656,1.808-3.308,2.645-4.949
		c1.552-3.018,2.963-6.07,4.233-9.162c1.269-3.091,2.218-6.265,2.845-9.521c0.029-0.148,0.052-0.306,0.066-0.471
		c0.016-0.164,0.022-0.336,0.022-0.516c0-0.985-0.329-1.688-0.986-2.105c-0.656-0.418-1.508-0.627-2.554-0.627
		c-0.866,0-1.844,0.12-2.934,0.358c-1.092,0.238-2.158,0.545-3.203,0.919c-1.046,0.373-1.957,0.769-2.733,1.187
		c-1.104,0.568-2.255,1.285-3.45,2.15c-1.194,0.867-2.307,1.792-3.338,2.777c-1.03,0.985-1.875,1.972-2.531,2.956
		c-0.419,0.657-0.762,1.39-1.03,2.195c-0.27,0.807-0.403,1.599-0.403,2.375c0,0.926,0.246,1.657,0.739,2.194
		c0.493,0.538,1.307,0.807,2.441,0.807c0.807,0,1.44-0.147,1.904-0.448c0.463-0.298,0.888-0.446,1.277-0.446
		c0.388,0,0.583,0.164,0.583,0.491c0,0.358-0.239,0.665-0.717,0.919c-0.479,0.255-1.017,0.448-1.613,0.582
		c-0.599,0.136-1.062,0.202-1.39,0.202c-1.522,0-2.703-0.396-3.539-1.188c-0.837-0.791-1.255-1.829-1.255-3.113
		c0-0.896,0.165-1.807,0.493-2.733c0.328-0.925,0.746-1.775,1.254-2.554c0.688-1.015,1.591-2.038,2.71-3.067
		c1.12-1.03,2.322-2.001,3.606-2.912s2.479-1.665,3.584-2.264c0.866-0.478,1.882-0.933,3.047-1.365
		c1.165-0.434,2.353-0.784,3.563-1.054c1.209-0.269,2.307-0.402,3.292-0.402c1.492,0,2.657,0.328,3.494,0.984
		c0.836,0.657,1.255,1.645,1.255,2.957c0,0.867-0.143,1.912-0.427,3.136c-0.284,1.227-0.648,2.494-1.098,3.81
		c-0.448,1.313-0.903,2.568-1.366,3.763c-0.463,1.195-0.874,2.227-1.231,3.092l0.179,0.09c0.687-0.835,1.56-1.852,2.621-3.047
		c1.06-1.193,2.24-2.434,3.54-3.719c1.299-1.283,2.666-2.479,4.099-3.584c1.435-1.104,2.853-2.008,4.256-2.71
		c1.404-0.701,2.748-1.053,4.032-1.053c1.434,0,2.486,0.329,3.158,0.984c0.672,0.657,1.009,1.599,1.009,2.822
		c0,1.227-0.27,2.592-0.807,4.101c-0.537,1.508-1.172,2.985-1.904,4.435s-1.412,2.711-2.039,3.786
		c-1.135,1.971-2.218,3.958-3.248,5.958c-1.03,2.002-1.889,4.077-2.576,6.228c-0.148,0.479-0.291,0.956-0.425,1.435
		c-0.135,0.478-0.202,0.97-0.202,1.479c0,0.537,0.089,0.881,0.27,1.03c0.18,0.149,0.357,0.254,0.538,0.313
		c0.18,0.059,0.269,0.225,0.269,0.492c0,0.18-0.075,0.336-0.224,0.471C60.618,70.359,60.439,70.427,60.231,70.427z"/>
	<path fill="none" stroke="#000000" stroke-width="0.3" stroke-miterlimit="10" d="M68.25,66.619c-0.984,0-1.666-0.262-2.039-0.784
		c-0.374-0.521-0.56-1.156-0.56-1.903c0-0.718,0.119-1.463,0.359-2.24c0.237-0.776,0.5-1.501,0.783-2.173
		c0.284-0.672,0.516-1.172,0.694-1.501c0.538-0.926,1.143-1.821,1.814-2.688c0.671-0.867,1.396-1.628,2.173-2.285
		c0.775-0.687,1.574-1.217,2.396-1.59s1.65-0.561,2.486-0.561c1.434,0,2.449,0.381,3.047,1.143s0.896,1.576,0.896,2.441
		c0,0.299-0.045,0.611-0.135,0.94c-0.119,0.447-0.262,0.836-0.426,1.164c-0.164,0.329-0.366,0.493-0.605,0.493
		c-0.209,0-0.401-0.104-0.581-0.313s-0.239-0.418-0.18-0.627c0.061-0.209,0.143-0.419,0.246-0.629
		c0.104-0.208,0.172-0.418,0.202-0.627c0.029-0.148,0.051-0.282,0.066-0.402c0.016-0.119,0.022-0.238,0.022-0.358
		c0-0.806-0.262-1.366-0.785-1.68c-0.521-0.313-1.082-0.471-1.68-0.471c-0.688,0-1.396,0.194-2.128,0.583
		c-0.732,0.388-1.366,0.836-1.903,1.344c-0.658,0.657-1.313,1.419-1.972,2.285c-0.658,0.865-1.226,1.747-1.703,2.643
		c-0.06,0.15-0.217,0.509-0.47,1.075c-0.254,0.567-0.493,1.203-0.717,1.904c-0.225,0.701-0.337,1.352-0.337,1.947
		c0,0.419,0.098,0.777,0.291,1.075c0.194,0.3,0.53,0.448,1.009,0.448c0.507,0,1.097-0.238,1.77-0.717
		c0.671-0.479,1.359-1.067,2.061-1.771c0.701-0.701,1.337-1.381,1.903-2.038c0.567-0.657,0.986-1.165,1.255-1.522
		c0.18-0.238,0.352-0.5,0.516-0.784c0.164-0.283,0.336-0.544,0.516-0.784c0.09-0.118,0.27-0.179,0.537-0.179
		c0.239,0,0.485,0.066,0.74,0.201c0.253,0.135,0.35,0.32,0.291,0.561c-0.12,0.209-0.336,0.665-0.65,1.366
		c-0.313,0.702-0.604,1.464-0.873,2.285c-0.27,0.82-0.403,1.545-0.403,2.173c0,0.775,0.239,1.225,0.718,1.344
		c0.328,0.062,0.679-0.06,1.053-0.358c0.373-0.298,0.717-0.642,1.03-1.029c0.313-0.389,0.545-0.672,0.694-0.853
		c0.627-0.836,1.217-1.693,1.771-2.576c0.552-0.88,1.111-1.709,1.68-2.485c0.179-0.238,0.388-0.358,0.627-0.358
		c0.418,0,0.627,0.226,0.627,0.672c0,0.15-0.193,0.531-0.582,1.144c-0.389,0.611-0.858,1.307-1.412,2.083
		c-0.553,0.776-1.066,1.479-1.545,2.104c-0.479,0.628-1.016,1.24-1.612,1.837c-0.599,0.6-1.359,0.896-2.284,0.896
		c-0.866,0-1.456-0.194-1.771-0.583c-0.313-0.388-0.471-0.82-0.471-1.299c0-0.418,0.045-0.858,0.134-1.321
		c0.09-0.463,0.181-0.858,0.271-1.188l-0.181-0.136c-0.269,0.329-0.672,0.747-1.209,1.255c-0.537,0.509-1.136,1.023-1.792,1.547
		c-0.656,0.521-1.308,0.963-1.948,1.32C69.332,66.439,68.757,66.619,68.25,66.619z"/>
	<path fill="none" stroke="#000000" stroke-width="0.3" stroke-miterlimit="10" d="M85.005,66.484c-1.016,0-1.821-0.283-2.419-0.853
		c-0.598-0.565-0.896-1.357-0.896-2.374c0-0.598,0.059-1.188,0.179-1.77c0.119-0.583,0.284-1.157,0.493-1.725
		c0.119-0.329,0.365-0.874,0.738-1.637c0.374-0.762,0.813-1.567,1.321-2.419c0.509-0.852,1-1.575,1.479-2.173
		c0.478-0.598,0.896-0.896,1.254-0.896c0.149,0,0.352,0.053,0.604,0.156c0.254,0.104,0.382,0.263,0.382,0.472
		c0,0.119-0.062,0.269-0.181,0.446c-0.688,0.777-1.403,1.703-2.149,2.778s-1.374,2.195-1.881,3.359
		c-0.51,1.165-0.763,2.285-0.763,3.359c0,1.374,0.656,2.062,1.972,2.062c0.896,0,1.799-0.434,2.711-1.299
		c0.909-0.866,1.918-2.031,3.022-3.494c0.328-0.418,0.619-0.829,0.873-1.232c0.254-0.402,0.486-0.754,0.695-1.053
		c0.209-0.209,0.432-0.313,0.672-0.313c0.358,0,0.537,0.135,0.537,0.403c0,0.329-0.239,0.852-0.717,1.567
		c-0.479,0.716-1.017,1.464-1.612,2.239c-1.165,1.435-2.181,2.524-3.046,3.271C87.409,66.111,86.319,66.484,85.005,66.484z
		 M90.022,48.161c-0.149,0-0.313-0.029-0.492-0.09c-0.18-0.06-0.27-0.193-0.27-0.403c0-0.147,0.045-0.282,0.135-0.402
		c0.237-0.447,0.68-0.836,1.321-1.164c0.643-0.329,1.128-0.493,1.455-0.493c0.149,0,0.314,0.038,0.493,0.112
		c0.18,0.073,0.27,0.217,0.27,0.425c0,0.509-0.308,0.972-0.918,1.39C91.403,47.952,90.739,48.161,90.022,48.161z"/>
	<path fill="none" stroke="#000000" stroke-width="0.3" stroke-miterlimit="10" d="M95.04,66.484c-1.193,0-2.016-0.358-2.463-1.075
		c-0.449-0.717-0.673-1.583-0.673-2.599c0-1.136,0.187-2.435,0.56-3.897s0.867-2.985,1.479-4.568s1.307-3.138,2.084-4.659
		c0.775-1.523,1.568-2.912,2.375-4.167c0.805-1.254,1.565-2.284,2.283-3.091c0.627-0.688,1.231-1.218,1.813-1.592
		c0.584-0.373,1.203-0.679,1.859-0.918c0.449-0.18,0.896-0.269,1.344-0.269c0.598,0,1.113,0.148,1.547,0.447
		c0.433,0.299,0.648,0.792,0.648,1.479c0,0.657-0.238,1.411-0.717,2.263c-0.478,0.852-1.074,1.71-1.791,2.576
		c-0.718,0.866-1.449,1.673-2.195,2.419c-0.748,0.747-1.404,1.359-1.971,1.837c-1.257,1.046-2.466,2.023-3.629,2.936
		c-1.166,0.911-2.138,1.829-2.912,2.755c-0.419,1.165-0.748,2.293-0.986,3.383c-0.239,1.09-0.358,2.068-0.358,2.935
		c0,0.776,0.143,1.419,0.427,1.927c0.283,0.509,0.783,0.762,1.501,0.762c0.717,0,1.402-0.23,2.061-0.694
		c0.656-0.463,1.291-1.053,1.904-1.77c0.61-0.717,1.172-1.434,1.68-2.15c0.359-0.508,0.709-1.008,1.053-1.501
		c0.345-0.493,0.619-0.889,0.828-1.188c0.119-0.208,0.314-0.313,0.584-0.313c0.328,0,0.492,0.165,0.492,0.493
		c0,0.209-0.09,0.479-0.27,0.807c-0.357,0.599-0.82,1.314-1.39,2.15c-0.565,0.836-1.209,1.657-1.926,2.464s-1.516,1.479-2.396,2.017
		C97.004,66.216,96.055,66.484,95.04,66.484z M101.76,43.322c-0.658,0.717-1.353,1.644-2.085,2.778
		c-0.731,1.134-1.454,2.39-2.172,3.763c-0.717,1.374-1.375,2.763-1.972,4.167c0.956-0.866,1.821-1.605,2.599-2.218
		c0.775-0.612,1.554-1.263,2.33-1.949c0.687-0.597,1.427-1.336,2.218-2.218c0.791-0.88,1.53-1.799,2.219-2.755
		c0.686-0.956,1.164-1.837,1.434-2.645c0.088-0.328,0.133-0.582,0.133-0.762c0-0.478-0.237-0.717-0.717-0.717
		c-0.119,0-0.246,0.016-0.381,0.045c-0.133,0.029-0.275,0.075-0.426,0.135c-0.537,0.209-1.066,0.508-1.59,0.896
		C102.827,42.232,102.298,42.725,101.76,43.322z"/>
	<path fill="none" stroke="#000000" stroke-width="0.3" stroke-miterlimit="10" d="M103.686,66.887c-1.464,0-2.583-0.3-3.359-0.896
		s-1.165-1.224-1.165-1.882c0-0.478,0.201-0.902,0.604-1.276c0.402-0.373,1.083-0.56,2.039-0.56c0.597,0,1.313,0.089,2.149,0.269
		c0.627,0.149,1.291,0.345,1.993,0.582c0.701,0.239,1.426,0.344,2.173,0.313c0.209-0.328,0.328-0.598,0.358-0.807
		c0.028-0.209,0.045-0.463,0.045-0.762c0-0.986-0.157-1.807-0.471-2.464c-0.314-0.657-0.673-1.3-1.075-1.927
		c-0.403-0.627-0.739-1.39-1.008-2.285c-0.39,0.657-0.883,1.517-1.479,2.576c-0.598,1.061-1.583,2.502-2.957,4.322
		c-0.089,0.149-0.269,0.225-0.537,0.225c-0.448,0-0.672-0.193-0.672-0.582c0-0.09,0.066-0.225,0.201-0.403s0.439-0.642,0.919-1.389
		c0.537-0.866,1.164-1.844,1.881-2.936c0.717-1.09,1.403-2.292,2.063-3.605c0.028-0.507,0.134-1,0.313-1.479
		c0.179-0.477,0.388-0.909,0.627-1.299c0.328-0.538,0.672-0.934,1.03-1.188c0.357-0.253,0.687-0.381,0.984-0.381
		c0.567,0,0.853,0.328,0.853,0.985c0,0.447-0.18,1.03-0.538,1.747c-0.209,0.447-0.478,0.828-0.806,1.144
		c-0.329,0.313-0.613,0.59-0.853,0.827c0.061,0.747,0.238,1.42,0.538,2.018c0.298,0.598,0.634,1.18,1.008,1.747
		c0.373,0.566,0.694,1.18,0.963,1.837c0.27,0.657,0.403,1.448,0.403,2.374c0,0.598-0.104,1.149-0.313,1.657
		c0.655,0.029,1.336-0.217,2.038-0.738c0.7-0.522,1.373-1.202,2.017-2.039c0.642-0.836,1.216-1.688,1.725-2.554
		c0.148-0.208,0.344-0.313,0.582-0.313c0.149,0,0.298,0.045,0.448,0.135c0.149,0.091,0.224,0.239,0.224,0.448
		c0,0.119-0.045,0.27-0.134,0.447c-0.867,1.554-1.694,2.756-2.485,3.605c-0.792,0.853-1.592,1.441-2.397,1.771
		c-0.807,0.329-1.702,0.522-2.688,0.583c-0.746,0.688-1.546,1.217-2.396,1.59C105.68,66.7,104.731,66.887,103.686,66.887z
		 M103.463,65.812c0.688,0,1.284-0.104,1.792-0.313c0.509-0.209,1.061-0.508,1.657-0.896c-0.627-0.09-1.148-0.201-1.566-0.336
		c-0.42-0.136-0.956-0.275-1.613-0.427c-0.836-0.179-1.494-0.269-1.971-0.269c-0.866,0-1.301,0.209-1.301,0.627
		c0,0.329,0.284,0.68,0.853,1.053C101.879,65.626,102.595,65.812,103.463,65.812z"/>
</g>
<g enable-background="new    ">
	<path d="M38.592,104.263c-0.896,0-1.485-0.276-1.77-0.829c-0.284-0.554-0.425-1.157-0.425-1.814c0-0.775,0.157-1.694,0.47-2.755
		c0.313-1.06,0.717-2.15,1.209-3.271c0.493-1.12,1-2.188,1.523-3.203c0.521-1.016,0.978-1.866,1.365-2.555
		c0.27-0.447,0.709-1.202,1.322-2.263c0.612-1.06,1.299-2.262,2.062-3.606c0.762-1.344,1.501-2.68,2.218-4.009
		s1.306-2.502,1.77-3.518c0.463-1.016,0.694-1.702,0.694-2.062c0-0.865-0.306-1.463-0.918-1.792
		c-0.613-0.328-1.353-0.492-2.218-0.492c-1.374,0-2.957,0.292-4.749,0.874c-1.792,0.581-3.606,1.365-5.443,2.353
		c-1.837,0.985-3.54,2.113-5.106,3.382c-1.568,1.271-2.83,2.592-3.786,3.965c-0.956,1.374-1.435,2.719-1.435,4.032
		c0,0.657,0.194,1.157,0.583,1.501s0.88,0.567,1.479,0.672c0.597,0.104,1.209,0.156,1.836,0.156c0.687,0,1.351-0.074,1.994-0.224
		c0.642-0.149,1.262-0.328,1.858-0.537c0.061-0.03,0.119-0.054,0.18-0.067c0.06-0.015,0.118-0.021,0.179-0.021
		c0.478,0,0.717,0.209,0.717,0.627c0,0.269-0.224,0.501-0.672,0.693c-0.448,0.194-0.979,0.353-1.591,0.472
		c-0.612,0.118-1.202,0.209-1.771,0.269c-0.566,0.061-0.971,0.09-1.209,0.09c-0.867,0-1.71-0.112-2.53-0.336
		c-0.822-0.225-1.485-0.598-1.994-1.12c-0.507-0.521-0.763-1.231-0.763-2.128c0-0.896,0.232-1.821,0.695-2.778
		c0.463-0.954,0.979-1.807,1.545-2.553c0.717-0.956,1.635-1.911,2.755-2.867s2.308-1.852,3.563-2.688
		c1.254-0.836,2.434-1.538,3.539-2.105c0.925-0.508,1.979-0.984,3.159-1.434c1.179-0.448,2.381-0.813,3.605-1.098
		c1.224-0.283,2.389-0.427,3.494-0.427c1.313,0,2.389,0.27,3.226,0.808c0.836,0.537,1.254,1.434,1.254,2.688v0.09
		c0,0.479-0.23,1.247-0.693,2.309c-0.463,1.061-1.046,2.262-1.747,3.605c-0.702,1.345-1.441,2.695-2.218,4.055
		c-0.777,1.358-1.486,2.584-2.128,3.674c-0.644,1.091-1.113,1.89-1.411,2.396c-0.358,0.567-0.784,1.337-1.277,2.308
		s-0.979,2.009-1.456,3.112C39.1,96.946,38.704,97.999,38.391,99c-0.314,1.001-0.472,1.814-0.472,2.441
		c0,0.328,0.074,0.648,0.225,0.963c0.148,0.313,0.463,0.471,0.94,0.471c0.776,0,1.731-0.366,2.867-1.098
		c1.135-0.731,2.336-1.657,3.606-2.777c1.269-1.12,2.501-2.3,3.695-3.539c1.194-1.238,2.264-2.382,3.203-3.428
		c0.941-1.045,1.62-1.837,2.039-2.374c0.119-0.508,0.321-1.172,0.605-1.994c0.282-0.82,0.642-1.693,1.074-2.621
		c0.434-0.925,0.926-1.799,1.479-2.62c0.553-0.82,1.143-1.492,1.77-2.017c0.627-0.521,1.284-0.783,1.972-0.783
		c0.238,0,0.493,0.052,0.761,0.156c0.269,0.105,0.403,0.291,0.403,0.561c0,0.119-0.016,0.209-0.045,0.27
		c-0.836,1.673-1.836,3.314-3.001,4.928s-2.36,3.166-3.584,4.659c-0.12,0.657-0.218,1.314-0.291,1.972
		c-0.075,0.657-0.112,1.329-0.112,2.017c0,0.956,0.119,1.89,0.357,2.8c0.239,0.912,0.702,1.666,1.39,2.263
		c0.687,0.599,1.702,0.896,3.046,0.896c1.552,0,3.031-0.396,4.435-1.188s2.583-1.694,3.539-2.711
		c1.226-1.254,2.322-2.717,3.293-4.39s1.747-3.412,2.329-5.22c0.583-1.808,0.874-3.531,0.874-5.176c0-0.925-0.12-1.762-0.357-2.509
		c-0.239-0.746-0.822-1.403-1.747-1.971c-0.239-0.149-0.358-0.328-0.358-0.538c0-0.148,0.066-0.298,0.201-0.447
		c0.135-0.148,0.307-0.225,0.516-0.225c0.119,0,0.238,0.029,0.358,0.09c1.135,0.538,1.896,1.313,2.284,2.33
		c0.389,1.016,0.583,2.046,0.583,3.091c0,1.374-0.247,2.95-0.739,4.727c-0.492,1.777-1.209,3.569-2.15,5.376
		c-0.94,1.809-2.067,3.473-3.382,4.995c-1.314,1.523-2.8,2.755-4.458,3.696c-1.658,0.94-3.442,1.411-5.354,1.411
		c-1.404,0-2.524-0.299-3.36-0.896c-0.836-0.597-1.456-1.373-1.859-2.328c-0.402-0.956-0.656-1.965-0.761-3.024
		s-0.142-2.053-0.112-2.979c-0.508,0.6-1.217,1.391-2.128,2.375c-0.91,0.985-1.941,2.031-3.091,3.137
		c-1.149,1.104-2.337,2.149-3.562,3.136c-1.226,0.986-2.412,1.792-3.563,2.42C40.601,103.95,39.548,104.263,38.592,104.263z"/>
	<path d="M76.941,102.785c-0.808,0-1.449-0.209-1.927-0.627c-0.479-0.418-0.828-0.934-1.054-1.546
		c-0.225-0.611-0.336-1.188-0.336-1.725c0-0.718,0.136-1.517,0.403-2.396s0.507-1.485,0.717-1.813c0-0.091-0.008-0.188-0.021-0.292
		c-0.017-0.104-0.022-0.201-0.022-0.291c0-0.807,0.119-1.643,0.358-2.51c0.27-1.015,0.746-1.947,1.434-2.8
		c0.688-0.852,1.545-1.546,2.576-2.083c1.03-0.538,2.157-0.807,3.383-0.807c1.435,0,2.537,0.381,3.314,1.143
		c0.775,0.762,1.165,1.755,1.165,2.979c0,1.702-0.308,3.166-0.919,4.39c-0.611,1.226-1.263,2.405-1.948,3.54
		c-0.12,0.239-0.225,0.433-0.313,0.582s0,0.224,0.27,0.224c0.866,0,1.718-0.357,2.554-1.074c0.836-0.718,1.896-2.075,3.181-4.076
		c0.091-0.149,0.18-0.271,0.27-0.358c0.09-0.09,0.225-0.135,0.404-0.135h0.089c0.328,0,0.521,0.194,0.583,0.582
		c0,0.09-0.031,0.195-0.091,0.313c-0.746,1.314-1.501,2.449-2.263,3.404c-0.762,0.956-1.665,1.68-2.71,2.173
		c-1.047,0.493-2.359,0.755-3.942,0.784c-0.628,0.598-1.396,1.15-2.308,1.657C78.874,102.531,77.927,102.785,76.941,102.785z
		 M77.21,101.531c0.599,0,1.194-0.187,1.792-0.561c0.598-0.373,1.104-0.725,1.523-1.054c-2.271-0.237-3.942-1.238-5.019-3.002
		c-0.029,0.21-0.09,0.523-0.179,0.941c-0.09,0.418-0.135,0.836-0.135,1.254c0,0.599,0.135,1.15,0.402,1.658
		C75.866,101.277,76.403,101.531,77.21,101.531z M81.242,98.664h0.448c0.627-0.747,1.23-1.598,1.813-2.554
		c0.582-0.956,1.054-1.949,1.41-2.979c0.359-1.029,0.538-2.009,0.538-2.935c0-0.866-0.224-1.604-0.672-2.218
		c-0.448-0.611-1.226-0.918-2.329-0.918c-0.748,0-1.473,0.155-2.174,0.471c-0.701,0.313-1.307,0.694-1.814,1.142l0.136,0.181
		c0.06-0.029,0.148-0.045,0.27-0.045c0.179,0,0.342,0.066,0.492,0.2c0.147,0.136,0.225,0.277,0.225,0.427
		c0,0.09-0.016,0.165-0.045,0.225c-0.031,0.061-0.075,0.119-0.135,0.179c-0.508,0.747-1.001,1.449-1.479,2.105
		c-0.479,0.657-0.926,1.404-1.344,2.24c-0.09,0.209-0.194,0.419-0.313,0.627c0.238,1.104,0.799,2.023,1.681,2.756
		C78.829,98.298,79.927,98.664,81.242,98.664z"/>
	<path d="M92.397,101.8c-1.195,0-2.018-0.357-2.465-1.074c-0.447-0.718-0.672-1.583-0.672-2.6c0-1.135,0.187-2.434,0.561-3.896
		c0.373-1.463,0.865-2.986,1.479-4.569c0.611-1.583,1.307-3.137,2.082-4.659c0.777-1.522,1.568-2.912,2.375-4.167
		c0.808-1.254,1.568-2.284,2.285-3.091c0.627-0.687,1.232-1.217,1.814-1.591c0.582-0.373,1.201-0.679,1.858-0.918
		c0.447-0.18,0.896-0.27,1.345-0.27c0.598,0,1.11,0.149,1.545,0.447c0.434,0.299,0.649,0.792,0.649,1.479
		c0,0.656-0.239,1.411-0.717,2.263c-0.479,0.851-1.076,1.71-1.793,2.576s-1.449,1.673-2.195,2.419
		c-0.745,0.747-1.403,1.358-1.971,1.837c-1.254,1.046-2.464,2.022-3.629,2.935c-1.164,0.911-2.135,1.829-2.912,2.755
		c-0.418,1.165-0.746,2.294-0.984,3.384c-0.239,1.09-0.358,2.067-0.358,2.934c0,0.777,0.142,1.419,0.426,1.927
		c0.283,0.51,0.784,0.763,1.501,0.763s1.403-0.231,2.062-0.694c0.657-0.463,1.292-1.053,1.903-1.771
		c0.612-0.717,1.171-1.434,1.682-2.149c0.356-0.508,0.709-1.008,1.053-1.501c0.342-0.493,0.619-0.889,0.828-1.188
		c0.119-0.208,0.313-0.313,0.582-0.313c0.328,0,0.492,0.165,0.492,0.493c0,0.209-0.089,0.478-0.269,0.807
		c-0.358,0.598-0.822,1.314-1.389,2.15c-0.568,0.836-1.211,1.656-1.928,2.464c-0.717,0.806-1.517,1.479-2.396,2.016
		C94.36,101.531,93.412,101.8,92.397,101.8z M99.116,78.637c-0.656,0.717-1.352,1.644-2.082,2.777
		c-0.731,1.135-1.457,2.391-2.174,3.764c-0.717,1.374-1.373,2.763-1.971,4.167c0.955-0.866,1.82-1.605,2.599-2.219
		c0.776-0.611,1.552-1.262,2.329-1.948c0.688-0.598,1.426-1.337,2.219-2.219c0.791-0.88,1.529-1.799,2.217-2.755
		c0.688-0.956,1.164-1.837,1.435-2.644c0.09-0.328,0.135-0.582,0.135-0.763c0-0.477-0.24-0.717-0.717-0.717
		c-0.119,0-0.246,0.017-0.381,0.045c-0.136,0.03-0.277,0.075-0.427,0.136c-0.536,0.209-1.067,0.508-1.59,0.896
		C100.184,77.548,99.655,78.041,99.116,78.637z"/>
	<path d="M100.819,102.427c-0.985,0-1.673-0.329-2.062-0.985s-0.583-1.358-0.583-2.105c0-0.865,0.188-1.852,0.562-2.957
		c0.373-1.104,0.888-2.225,1.545-3.359s1.419-2.181,2.285-3.137c0.866-0.954,1.813-1.73,2.845-2.329
		c1.03-0.598,2.083-0.896,3.158-0.896c0.657,0,1.188,0.12,1.591,0.358s0.784,0.566,1.144,0.984c0.627-1.015,1.327-2.247,2.104-3.694
		c0.776-1.449,1.568-2.912,2.374-4.392c0.807-1.479,1.538-2.756,2.195-3.831c0.299-0.507,0.611-0.851,0.94-1.029
		c0.328-0.18,0.643-0.27,0.94-0.27c0.238,0,0.433,0.062,0.582,0.18c0.148,0.119,0.225,0.373,0.225,0.762
		c0,0.21-0.188,0.649-0.561,1.321c-0.374,0.673-0.858,1.472-1.456,2.396c-0.599,0.925-1.239,1.896-1.926,2.912
		c-0.688,1.016-1.337,1.985-1.949,2.912c-0.612,0.926-1.113,1.702-1.501,2.329c-0.299,0.479-0.702,1.202-1.209,2.173
		c-0.509,0.972-1.031,2.039-1.568,3.203c-0.538,1.165-0.984,2.301-1.344,3.404c-0.358,1.105-0.538,2.017-0.538,2.732
		c0,0.389,0.074,0.717,0.225,0.986c0.148,0.269,0.373,0.401,0.673,0.401c0.327,0,0.672-0.134,1.029-0.401
		c0.358-0.271,0.688-0.567,0.985-0.896c0.298-0.328,0.508-0.582,0.627-0.762c0.119-0.148,0.403-0.537,0.852-1.165
		c0.448-0.627,0.935-1.307,1.456-2.038c0.522-0.731,0.918-1.306,1.188-1.725c0.147-0.239,0.357-0.358,0.627-0.358
		c0.388,0,0.582,0.224,0.582,0.672c0,0.062-0.061,0.188-0.179,0.381c-0.12,0.194-0.27,0.441-0.448,0.739
		c-1.435,2.211-2.658,3.896-3.674,5.063c-1.017,1.166-2.092,1.747-3.227,1.747c-0.09,0-0.187,0-0.291,0
		c-0.104,0-0.201-0.015-0.291-0.045c-0.598-0.119-1.008-0.447-1.231-0.984c-0.225-0.538-0.336-1.091-0.336-1.658
		c0-0.27,0.021-0.561,0.066-0.873c0.045-0.313,0.127-0.739,0.246-1.277c-0.567,0.688-1.194,1.428-1.881,2.218
		c-0.688,0.792-1.367,1.486-2.039,2.083c-0.672,0.599-1.262,0.956-1.77,1.076C101.506,102.382,101.177,102.427,100.819,102.427z
		 M100.998,101.038c0.448,0,0.979-0.23,1.591-0.693c0.611-0.464,1.239-1.054,1.883-1.771c0.642-0.717,1.254-1.479,1.837-2.285
		c0.582-0.807,1.09-1.546,1.521-2.218c0.433-0.672,0.739-1.188,0.919-1.545l1.702-3.36c-0.239-0.328-0.5-0.61-0.784-0.852
		c-0.284-0.238-0.665-0.358-1.143-0.358c-0.926,0-1.821,0.277-2.688,0.829c-0.865,0.553-1.665,1.271-2.396,2.15
		c-0.732,0.882-1.367,1.837-1.904,2.867c-0.538,1.029-0.956,2.03-1.255,3.002c-0.299,0.971-0.447,1.813-0.447,2.53
		c0,0.329,0.066,0.694,0.201,1.099C100.17,100.837,100.49,101.038,100.998,101.038z"/>
</g>
<g enable-background="new    ">
	<path fill="none" stroke="#000000" stroke-width="0.3" stroke-miterlimit="10" d="M38.592,104.263c-0.896,0-1.485-0.276-1.77-0.829
		c-0.284-0.554-0.425-1.157-0.425-1.814c0-0.775,0.157-1.694,0.47-2.755c0.313-1.06,0.717-2.15,1.209-3.271
		c0.493-1.12,1-2.188,1.523-3.203c0.521-1.016,0.978-1.866,1.365-2.555c0.27-0.447,0.709-1.202,1.322-2.263
		c0.612-1.06,1.299-2.262,2.062-3.606c0.762-1.344,1.501-2.68,2.218-4.009s1.306-2.502,1.77-3.518
		c0.463-1.016,0.694-1.702,0.694-2.062c0-0.865-0.306-1.463-0.918-1.792c-0.613-0.328-1.353-0.492-2.218-0.492
		c-1.374,0-2.957,0.292-4.749,0.874c-1.792,0.581-3.606,1.365-5.443,2.353c-1.837,0.985-3.54,2.113-5.106,3.382
		c-1.568,1.271-2.83,2.592-3.786,3.965c-0.956,1.374-1.435,2.719-1.435,4.032c0,0.657,0.194,1.157,0.583,1.501
		s0.88,0.567,1.479,0.672c0.597,0.104,1.209,0.156,1.836,0.156c0.687,0,1.351-0.074,1.994-0.224
		c0.642-0.149,1.262-0.328,1.858-0.537c0.061-0.03,0.119-0.054,0.18-0.067c0.06-0.015,0.118-0.021,0.179-0.021
		c0.478,0,0.717,0.209,0.717,0.627c0,0.269-0.224,0.501-0.672,0.693c-0.448,0.194-0.979,0.353-1.591,0.472
		c-0.612,0.118-1.202,0.209-1.771,0.269c-0.566,0.061-0.971,0.09-1.209,0.09c-0.867,0-1.71-0.112-2.53-0.336
		c-0.822-0.225-1.485-0.598-1.994-1.12c-0.507-0.521-0.763-1.231-0.763-2.128c0-0.896,0.232-1.821,0.695-2.778
		c0.463-0.954,0.979-1.807,1.545-2.553c0.717-0.956,1.635-1.911,2.755-2.867s2.308-1.852,3.563-2.688
		c1.254-0.836,2.434-1.538,3.539-2.105c0.925-0.508,1.979-0.984,3.159-1.434c1.179-0.448,2.381-0.813,3.605-1.098
		c1.224-0.283,2.389-0.427,3.494-0.427c1.313,0,2.389,0.27,3.226,0.808c0.836,0.537,1.254,1.434,1.254,2.688v0.09
		c0,0.479-0.23,1.247-0.693,2.309c-0.463,1.061-1.046,2.262-1.747,3.605c-0.702,1.345-1.441,2.695-2.218,4.055
		c-0.777,1.358-1.486,2.584-2.128,3.674c-0.644,1.091-1.113,1.89-1.411,2.396c-0.358,0.567-0.784,1.337-1.277,2.308
		s-0.979,2.009-1.456,3.112C39.1,96.946,38.704,97.999,38.391,99c-0.314,1.001-0.472,1.814-0.472,2.441
		c0,0.328,0.074,0.648,0.225,0.963c0.148,0.313,0.463,0.471,0.94,0.471c0.776,0,1.731-0.366,2.867-1.098
		c1.135-0.731,2.336-1.657,3.606-2.777c1.269-1.12,2.501-2.3,3.695-3.539c1.194-1.238,2.264-2.382,3.203-3.428
		c0.941-1.045,1.62-1.837,2.039-2.374c0.119-0.508,0.321-1.172,0.605-1.994c0.282-0.82,0.642-1.693,1.074-2.621
		c0.434-0.925,0.926-1.799,1.479-2.62c0.553-0.82,1.143-1.492,1.77-2.017c0.627-0.521,1.284-0.783,1.972-0.783
		c0.238,0,0.493,0.052,0.761,0.156c0.269,0.105,0.403,0.291,0.403,0.561c0,0.119-0.016,0.209-0.045,0.27
		c-0.836,1.673-1.836,3.314-3.001,4.928s-2.36,3.166-3.584,4.659c-0.12,0.657-0.218,1.314-0.291,1.972
		c-0.075,0.657-0.112,1.329-0.112,2.017c0,0.956,0.119,1.89,0.357,2.8c0.239,0.912,0.702,1.666,1.39,2.263
		c0.687,0.599,1.702,0.896,3.046,0.896c1.552,0,3.031-0.396,4.435-1.188s2.583-1.694,3.539-2.711
		c1.226-1.254,2.322-2.717,3.293-4.39s1.747-3.412,2.329-5.22c0.583-1.808,0.874-3.531,0.874-5.176c0-0.925-0.12-1.762-0.357-2.509
		c-0.239-0.746-0.822-1.403-1.747-1.971c-0.239-0.149-0.358-0.328-0.358-0.538c0-0.148,0.066-0.298,0.201-0.447
		c0.135-0.148,0.307-0.225,0.516-0.225c0.119,0,0.238,0.029,0.358,0.09c1.135,0.538,1.896,1.313,2.284,2.33
		c0.389,1.016,0.583,2.046,0.583,3.091c0,1.374-0.247,2.95-0.739,4.727c-0.492,1.777-1.209,3.569-2.15,5.376
		c-0.94,1.809-2.067,3.473-3.382,4.995c-1.314,1.523-2.8,2.755-4.458,3.696c-1.658,0.94-3.442,1.411-5.354,1.411
		c-1.404,0-2.524-0.299-3.36-0.896c-0.836-0.597-1.456-1.373-1.859-2.328c-0.402-0.956-0.656-1.965-0.761-3.024
		s-0.142-2.053-0.112-2.979c-0.508,0.6-1.217,1.391-2.128,2.375c-0.91,0.985-1.941,2.031-3.091,3.137
		c-1.149,1.104-2.337,2.149-3.562,3.136c-1.226,0.986-2.412,1.792-3.563,2.42C40.601,103.95,39.548,104.263,38.592,104.263z"/>
	<path fill="none" stroke="#000000" stroke-width="0.3" stroke-miterlimit="10" d="M76.941,102.785
		c-0.808,0-1.449-0.209-1.927-0.627c-0.479-0.418-0.828-0.934-1.054-1.546c-0.225-0.611-0.336-1.188-0.336-1.725
		c0-0.718,0.136-1.517,0.403-2.396s0.507-1.485,0.717-1.813c0-0.091-0.008-0.188-0.021-0.292c-0.017-0.104-0.022-0.201-0.022-0.291
		c0-0.807,0.119-1.643,0.358-2.51c0.27-1.015,0.746-1.947,1.434-2.8c0.688-0.852,1.545-1.546,2.576-2.083
		c1.03-0.538,2.157-0.807,3.383-0.807c1.435,0,2.537,0.381,3.314,1.143c0.775,0.762,1.165,1.755,1.165,2.979
		c0,1.702-0.308,3.166-0.919,4.39c-0.611,1.226-1.263,2.405-1.948,3.54c-0.12,0.239-0.225,0.433-0.313,0.582s0,0.224,0.27,0.224
		c0.866,0,1.718-0.357,2.554-1.074c0.836-0.718,1.896-2.075,3.181-4.076c0.091-0.149,0.18-0.271,0.27-0.358
		c0.09-0.09,0.225-0.135,0.404-0.135h0.089c0.328,0,0.521,0.194,0.583,0.582c0,0.09-0.031,0.195-0.091,0.313
		c-0.746,1.314-1.501,2.449-2.263,3.404c-0.762,0.956-1.665,1.68-2.71,2.173c-1.047,0.493-2.359,0.755-3.942,0.784
		c-0.628,0.598-1.396,1.15-2.308,1.657C78.874,102.531,77.927,102.785,76.941,102.785z M77.21,101.531
		c0.599,0,1.194-0.187,1.792-0.561c0.598-0.373,1.104-0.725,1.523-1.054c-2.271-0.237-3.942-1.238-5.019-3.002
		c-0.029,0.21-0.09,0.523-0.179,0.941c-0.09,0.418-0.135,0.836-0.135,1.254c0,0.599,0.135,1.15,0.402,1.658
		C75.866,101.277,76.403,101.531,77.21,101.531z M81.242,98.664h0.448c0.627-0.747,1.23-1.598,1.813-2.554
		c0.582-0.956,1.054-1.949,1.41-2.979c0.359-1.029,0.538-2.009,0.538-2.935c0-0.866-0.224-1.604-0.672-2.218
		c-0.448-0.611-1.226-0.918-2.329-0.918c-0.748,0-1.473,0.155-2.174,0.471c-0.701,0.313-1.307,0.694-1.814,1.142l0.136,0.181
		c0.06-0.029,0.148-0.045,0.27-0.045c0.179,0,0.342,0.066,0.492,0.2c0.147,0.136,0.225,0.277,0.225,0.427
		c0,0.09-0.016,0.165-0.045,0.225c-0.031,0.061-0.075,0.119-0.135,0.179c-0.508,0.747-1.001,1.449-1.479,2.105
		c-0.479,0.657-0.926,1.404-1.344,2.24c-0.09,0.209-0.194,0.419-0.313,0.627c0.238,1.104,0.799,2.023,1.681,2.756
		C78.829,98.298,79.927,98.664,81.242,98.664z"/>
	<path fill="none" stroke="#000000" stroke-width="0.3" stroke-miterlimit="10" d="M92.397,101.8c-1.195,0-2.018-0.357-2.465-1.074
		c-0.447-0.718-0.672-1.583-0.672-2.6c0-1.135,0.187-2.434,0.561-3.896c0.373-1.463,0.865-2.986,1.479-4.569
		c0.611-1.583,1.307-3.137,2.082-4.659c0.777-1.522,1.568-2.912,2.375-4.167c0.808-1.254,1.568-2.284,2.285-3.091
		c0.627-0.687,1.232-1.217,1.814-1.591c0.582-0.373,1.201-0.679,1.858-0.918c0.447-0.18,0.896-0.27,1.345-0.27
		c0.598,0,1.11,0.149,1.545,0.447c0.434,0.299,0.649,0.792,0.649,1.479c0,0.656-0.239,1.411-0.717,2.263
		c-0.479,0.851-1.076,1.71-1.793,2.576s-1.449,1.673-2.195,2.419c-0.745,0.747-1.403,1.358-1.971,1.837
		c-1.254,1.046-2.464,2.022-3.629,2.935c-1.164,0.911-2.135,1.829-2.912,2.755c-0.418,1.165-0.746,2.294-0.984,3.384
		c-0.239,1.09-0.358,2.067-0.358,2.934c0,0.777,0.142,1.419,0.426,1.927c0.283,0.51,0.784,0.763,1.501,0.763
		s1.403-0.231,2.062-0.694c0.657-0.463,1.292-1.053,1.903-1.771c0.612-0.717,1.171-1.434,1.682-2.149
		c0.356-0.508,0.709-1.008,1.053-1.501c0.342-0.493,0.619-0.889,0.828-1.188c0.119-0.208,0.313-0.313,0.582-0.313
		c0.328,0,0.492,0.165,0.492,0.493c0,0.209-0.089,0.478-0.269,0.807c-0.358,0.598-0.822,1.314-1.389,2.15
		c-0.568,0.836-1.211,1.656-1.928,2.464c-0.717,0.806-1.517,1.479-2.396,2.016C94.36,101.531,93.412,101.8,92.397,101.8z
		 M99.116,78.637c-0.656,0.717-1.352,1.644-2.082,2.777c-0.731,1.135-1.457,2.391-2.174,3.764c-0.717,1.374-1.373,2.763-1.971,4.167
		c0.955-0.866,1.82-1.605,2.599-2.219c0.776-0.611,1.552-1.262,2.329-1.948c0.688-0.598,1.426-1.337,2.219-2.219
		c0.791-0.88,1.529-1.799,2.217-2.755c0.688-0.956,1.164-1.837,1.435-2.644c0.09-0.328,0.135-0.582,0.135-0.763
		c0-0.477-0.24-0.717-0.717-0.717c-0.119,0-0.246,0.017-0.381,0.045c-0.136,0.03-0.277,0.075-0.427,0.136
		c-0.536,0.209-1.067,0.508-1.59,0.896C100.184,77.548,99.655,78.041,99.116,78.637z"/>
	<path fill="none" stroke="#000000" stroke-width="0.3" stroke-miterlimit="10" d="M100.819,102.427
		c-0.985,0-1.673-0.329-2.062-0.985s-0.583-1.358-0.583-2.105c0-0.865,0.188-1.852,0.562-2.957c0.373-1.104,0.888-2.225,1.545-3.359
		s1.419-2.181,2.285-3.137c0.866-0.954,1.813-1.73,2.845-2.329c1.03-0.598,2.083-0.896,3.158-0.896c0.657,0,1.188,0.12,1.591,0.358
		s0.784,0.566,1.144,0.984c0.627-1.015,1.327-2.247,2.104-3.694c0.776-1.449,1.568-2.912,2.374-4.392
		c0.807-1.479,1.538-2.756,2.195-3.831c0.299-0.507,0.611-0.851,0.94-1.029c0.328-0.18,0.643-0.27,0.94-0.27
		c0.238,0,0.433,0.062,0.582,0.18c0.148,0.119,0.225,0.373,0.225,0.762c0,0.21-0.188,0.649-0.561,1.321
		c-0.374,0.673-0.858,1.472-1.456,2.396c-0.599,0.925-1.239,1.896-1.926,2.912c-0.688,1.016-1.337,1.985-1.949,2.912
		c-0.612,0.926-1.113,1.702-1.501,2.329c-0.299,0.479-0.702,1.202-1.209,2.173c-0.509,0.972-1.031,2.039-1.568,3.203
		c-0.538,1.165-0.984,2.301-1.344,3.404c-0.358,1.105-0.538,2.017-0.538,2.732c0,0.389,0.074,0.717,0.225,0.986
		c0.148,0.269,0.373,0.401,0.673,0.401c0.327,0,0.672-0.134,1.029-0.401c0.358-0.271,0.688-0.567,0.985-0.896
		c0.298-0.328,0.508-0.582,0.627-0.762c0.119-0.148,0.403-0.537,0.852-1.165c0.448-0.627,0.935-1.307,1.456-2.038
		c0.522-0.731,0.918-1.306,1.188-1.725c0.147-0.239,0.357-0.358,0.627-0.358c0.388,0,0.582,0.224,0.582,0.672
		c0,0.062-0.061,0.188-0.179,0.381c-0.12,0.194-0.27,0.441-0.448,0.739c-1.435,2.211-2.658,3.896-3.674,5.063
		c-1.017,1.166-2.092,1.747-3.227,1.747c-0.09,0-0.187,0-0.291,0c-0.104,0-0.201-0.015-0.291-0.045
		c-0.598-0.119-1.008-0.447-1.231-0.984c-0.225-0.538-0.336-1.091-0.336-1.658c0-0.27,0.021-0.561,0.066-0.873
		c0.045-0.313,0.127-0.739,0.246-1.277c-0.567,0.688-1.194,1.428-1.881,2.218c-0.688,0.792-1.367,1.486-2.039,2.083
		c-0.672,0.599-1.262,0.956-1.77,1.076C101.506,102.382,101.177,102.427,100.819,102.427z M100.998,101.038
		c0.448,0,0.979-0.23,1.591-0.693c0.611-0.464,1.239-1.054,1.883-1.771c0.642-0.717,1.254-1.479,1.837-2.285
		c0.582-0.807,1.09-1.546,1.521-2.218c0.433-0.672,0.739-1.188,0.919-1.545l1.702-3.36c-0.239-0.328-0.5-0.61-0.784-0.852
		c-0.284-0.238-0.665-0.358-1.143-0.358c-0.926,0-1.821,0.277-2.688,0.829c-0.865,0.553-1.665,1.271-2.396,2.15
		c-0.732,0.882-1.367,1.837-1.904,2.867c-0.538,1.029-0.956,2.03-1.255,3.002c-0.299,0.971-0.447,1.813-0.447,2.53
		c0,0.329,0.066,0.694,0.201,1.099C100.17,100.837,100.49,101.038,100.998,101.038z"/>
</g>
</svg>
