<?xml version="1.0" encoding="utf-8"?>
<!-- Generator: Adobe Illustrator 16.0.0, SVG Export Plug-In . SVG Version: 6.00 Build 0)  -->
<!DOCTYPE svg PUBLIC "-//W3C//DTD SVG 1.1//EN" "http://www.w3.org/Graphics/SVG/1.1/DTD/svg11.dtd">
<svg version="1.1" id="Capa_1" xmlns="http://www.w3.org/2000/svg" xmlns:xlink="http://www.w3.org/1999/xlink" x="0px" y="0px"
	 width="125.893px" height="204.5px" viewBox="0 0 125.893 204.5" enable-background="new 0 0 125.893 204.5" xml:space="preserve">
<rect fill="#EEB8D5" stroke="#000000" stroke-width="4" stroke-miterlimit="10" width="125.893" height="204.5"/>
<g>
	<path fill="none" stroke="#010202" stroke-miterlimit="10" d="M27.592,196.818c0,0-0.654-94.672,0-100.667s3.666-16,11-22.667
		c-0.334,21-0.654,36.659,0,41s9.486,20.839,26,20.667c11.654-1.328,21.986-4.828,24.666-21.667c1.488-16.827,0.333-38.333,0-40
		s8.666,8.333,9,18.333s0.334,10,0.334,10v95"/>
	<path fill="none" stroke="#010202" stroke-miterlimit="10" d="M38.592,73.485c0,0,8.598-42.424,14.598-47.424
		c5.333,0.333,22.333,0,22.333,0s9.471,17.181,13.735,47.424"/>
</g>
</svg>
