<?xml version="1.0" encoding="utf-8"?>
<!-- Generator: Adobe Illustrator 16.0.0, SVG Export Plug-In . SVG Version: 6.00 Build 0)  -->
<!DOCTYPE svg PUBLIC "-//W3C//DTD SVG 1.1//EN" "http://www.w3.org/Graphics/SVG/1.1/DTD/svg11.dtd">
<svg version="1.1" id="Capa_1" xmlns="http://www.w3.org/2000/svg" xmlns:xlink="http://www.w3.org/1999/xlink" x="0px" y="0px"
	 width="125.893px" height="204.5px" viewBox="0 0 125.893 204.5" enable-background="new 0 0 125.893 204.5" xml:space="preserve">
<rect fill="#EEB8D5" stroke="#000000" stroke-width="4" stroke-miterlimit="10" width="125.893" height="204.5"/>
<g>
	<path fill="none" stroke="#010202" stroke-miterlimit="10" d="M27.592,196.911c0,0-0.654-94.672,0-100.666s3.667-16,11-22.667
		c-0.333,21-0.654,36.659,0,41c0.654,4.34,9.488,20.84,26,20.666c11.654-1.326,21.988-4.826,24.667-21.666
		c1.487-16.828,0.333-38.333,0-40s8.667,8.333,9,18.333c0.333,10,0.333,10,0.333,10v95"/>
	<path fill="none" stroke="#010202" stroke-miterlimit="10" d="M38.559,73.083c0,0-2.223-30,24.389-31
		c8.361,0.25,25.72,4.502,26.361,32"/>
</g>
</svg>
