<?xml version="1.0" encoding="utf-8"?>
<!-- Generator: Adobe Illustrator 16.0.0, SVG Export Plug-In . SVG Version: 6.00 Build 0)  -->
<!DOCTYPE svg PUBLIC "-//W3C//DTD SVG 1.1//EN" "http://www.w3.org/Graphics/SVG/1.1/DTD/svg11.dtd">
<svg version="1.1" id="Capa_1" xmlns="http://www.w3.org/2000/svg" xmlns:xlink="http://www.w3.org/1999/xlink" x="0px" y="0px"
	 width="125.893px" height="204.5px" viewBox="0 0 125.893 204.5" enable-background="new 0 0 125.893 204.5" xml:space="preserve">
<rect fill="#EEB8D5" stroke="#000000" stroke-width="4" stroke-miterlimit="10" width="125.893" height="204.5"/>
<g>
	<path fill="none" stroke="#010202" stroke-miterlimit="10" d="M27.477,197.137c0,0-0.654-94.672,0-100.666s3.667-16,11-22.667
		c-0.333,21-0.654,36.66,0,41s9.487,20.841,26,20.667c11.654-1.326,21.987-4.827,24.667-21.667c1.487-16.827,0.332-38.333,0-40
		c-0.334-1.667,8.666,8.333,9,18.333c0.333,10,0.333,10,0.333,10v95"/>
	<path fill="none" stroke="#010202" stroke-miterlimit="10" d="M38.477,73.804c0,0,0.335-22.495,24.354-22.995
		c15.27,0.25,24.105,4.49,26.313,22.995"/>
</g>
</svg>
